<svg xmlns="http://www.w3.org/2000/svg" width="500" height="500" viewBox="0 0 500 500"><path d="M400.08 237.66c.14-2.31.35-4.6.35-6.94 0-63.91-52.61-115.72-117.51-115.72-46.8 0-87.09 27-105.99 65.99-9.17-7-20.65-11.21-33.14-11.21-29.94 0-54.21 23.9-54.21 53.38 0 5.54.85 10.89 2.45 15.91C68.69 252.74 53 277.74 53 306.42c0 42.88 34.97 77.66 78.36 78.32l.92.05.32.01.32-.01h233.04c1.42.07 2.81.21 4.25.21 42.96 0 77.79-34.29 77.79-76.6 0-31.89-19.79-59.2-47.92-70.74zm-241.04 88.08c-7.89-7.14-12.8-15.8-14.77-26-.65-3.41-.98-6.98-.98-10.74-.01-14.54 5.28-26.56 15.88-36.03 10.59-9.48 24.06-14.23 40.42-14.22 16.79 0 32.62 6.28 46.6 18.85 3.49 3.13 6.86 6.66 10.11 10.57l17.98 21.14c3.11 4.26 6.45 7.94 9.9 11.04 9.23 8.29 19.25 12.44 27.71 12.44 7.2 0 13.21-2.2 18.05-6.62 4.22-4.02 6.6-8.83 7.13-14.4l.11-2.44c0-2.42-.34-4.71-1.04-6.858-1.15-3.58-3.26-6.8-6.32-9.67-4.78-4.56-10.8-6.81-18.1-6.81-8.97 0-17.84 3.02-27.56 12.438l-15.92-18.72-1.94-2.17c13.92-13.64 27.82-18.76 46.53-18.76 16.58 0 30 4.71 40.27 14.11l.23.19c10.438 9.38 15.67 21.51 15.67 36.39 0 3.68-.33 7.2-.98 10.55-1.96 10.07-6.88 18.65-14.74 25.76-7.72 7.11-17.14 11.56-28.26 13.33-3.71.59-7.61.89-11.7.89-17.17-.01-33.05-6.15-46.71-18.41-3.69-3.32-7.22-7.08-10.57-11.3l-17.98-20.99c-3.04-4.21-6.33-7.85-9.75-10.93-9.21-8.27-19.36-12.41-28.06-12.41-2.7 0-5.23.32-7.59.95-3.92 1.05-7.35 2.99-10.31 5.81-3.62 3.45-5.89 7.42-6.79 11.91-.3 1.49-.46 3.05-.45 4.66 0 6.38 2.3 11.84 6.9 16.37l.35.33c4.94 4.52 11.01 6.77 18.21 6.77 9.05 0 17.96-3.04 27.66-12.54l15.84 18.49 1.75 2.11c-14.46 13.8-28.21 19.02-46.2 19.01-16.57 0-30.09-4.7-40.58-14.09z" fill="#4679a4" clip-rule="evenodd" fill-rule="evenodd"/></svg>