<svg xmlns="http://www.w3.org/2000/svg" version="1" width="788" height="746" viewBox="17.6609 21.1052 713.326 675.514"><path fill="none" d="M34.546 30.9h669.937V667.51H34.546z"/><defs><filter id="a"><feGaussianBlur stdDeviation="10" in="SourceAlpha" result="blur"/><feOffset in="blur" dx="10" dy="10" result="off"/><feBlend in="SourceGraphic" in2="off" result="blend"/><feMerge><feMergeNode in="blend"/></feMerge></filter></defs><g filter="url(#a)"><path d="M155.257 342.333l9.344-2.53 27.21 256.517-97.557-111.953-21.888 18.264-6.483-6.917 32.842-29.363 79.292 90.064-22.76-214.08z" fill="#f5a568"/><path d="M140.46 299.19L34.545 181.5l3.227-2.903 134.886-12.535 25.826-132.098 3.406-3.065 103.09 114.55-28.028 29.605-3.227-3.585c7.326-8.324 11.113-15.923 11.362-22.797.247-6.875-2.587-13.6-8.502-20.172l-59.693-66.328-22.787 111.68L67.18 186.038l65.985 73.32c3.764 4.183 8.685 8.028 14.762 11.536 4.2 2.384 8.758 3.393 13.673 3.026 4.914-.368 11.12-2.574 18.62-6.62l2.6 4.15-42.36 27.74z" fill="#c871cf"/><path d="M595.6 314.484c5.23 0 9.58 1.83 13.053 5.49 3.47 3.663 5.206 8.3 5.206 13.91 0 5.61-1.736 10.246-5.207 13.907-3.472 3.663-7.822 5.493-13.053 5.493-5.23 0-9.58-1.83-13.052-5.492-3.47-3.66-5.206-8.296-5.206-13.907 0-5.61 1.735-10.246 5.206-13.908 3.47-3.66 7.822-5.49 13.053-5.49zm43.507 77.74c5.23.002 9.58 1.832 13.053 5.493 3.47 3.662 5.206 8.298 5.206 13.908 0 5.61-1.736 10.247-5.206 13.908-3.472 3.662-7.822 5.492-13.053 5.492-5.23 0-9.58-1.83-13.052-5.492-3.47-3.66-5.206-8.297-5.206-13.908 0-5.61 1.734-10.246 5.205-13.908 3.47-3.66 7.822-5.49 13.052-5.492zm-87.014 0c5.23.002 9.582 1.832 13.053 5.493 3.47 3.662 5.206 8.298 5.206 13.908 0 5.61-1.735 10.247-5.206 13.908-3.47 3.662-7.822 5.492-13.053 5.492-5.23 0-9.58-1.83-13.052-5.492-3.47-3.66-5.205-8.297-5.205-13.908 0-5.61 1.735-10.246 5.206-13.908 3.472-3.66 7.823-5.49 13.053-5.492z" fill="#7a8deb"/><path d="M464.408 183.407l-6.863 2.582c-2.857-17.02-3.066-31.21-.626-42.573 2.44-11.364 7.63-20.125 15.573-26.283 7.942-6.16 26.13-14.586 54.56-25.282l97.83-35.96 14.52-6.023c1.68 3.47 2.642 5.534 2.888 6.187l1.693 5.24 3.074 8.915 3.227 8.58-23.164 7.593-22.457 8.728c8.525 43.984 17.306 77.986 26.342 102.006 11.924 31.7 27.282 44.015 46.074 36.946 8.822-3.32 15.954-12.623 21.394-27.913l6.01 1.097c-.978 23.683-3.542 38.684-7.694 45.002-4.152 6.318-9.332 10.645-15.54 12.98-26.146 9.836-47.516-7.306-64.113-51.425-9.404-25-17.484-63.09-24.24-114.268-3.88 1.086-6.883 2.03-9.007 2.828-1.96.738-4.136 1.65-6.526 2.735l-9.712 3.933-17.924 5.903-13.45 5.898c-1.306.492-3.46 1.21-6.464 2.152 23.114 83.262 35.79 134.685 38.027 154.267 2.238 19.584-2.852 31.71-15.27 36.382-4.74 1.782-9.603 1.746-14.59-.108-4.988-1.854-8.404-5.233-10.248-10.135-2.46-6.536-1.65-15.047 2.426-25.534 6.418-17.15 9.08-32.886 7.98-47.21-1.096-14.32-7.793-48.734-20.09-103.237l-13.51 4.243c-10.46 3.933-19.362 9.148-26.712 15.643-7.35 6.495-11.822 18.53-13.418 36.104z" fill="#6fc584"/><path d="M475.62 289.315l15.614 17.216-102.307 92.79c7.378 7.305 14.67 13.107 21.88 17.404 7.208 4.298 14.54 6.865 21.997 7.703 7.457.837 14.994-.393 22.613-3.692 7.62-3.298 16.548-9.59 26.787-18.876l52.392-47.52 15.615 17.217-52.887 47.967c-8.092 7.34-15.56 13.21-22.404 17.61-6.845 4.403-13.673 7.66-20.484 9.774-6.81 2.115-14.384 2.85-22.718 2.207-8.334-.644-16.293-2.492-23.878-5.545-7.586-3.053-15.147-7.408-22.684-13.063-7.537-5.655-14.938-12.488-22.202-20.497-11.833-13.047-20.345-25.004-25.536-35.872-5.192-10.868-7.788-22.358-7.79-34.473 0-12.114 2.9-23.435 8.702-33.964 5.8-10.528 15.39-21.86 28.767-33.99l50.782-46.06 15.614 17.218-50.906 46.17c-8.175 7.414-14.39 13.878-18.644 19.392-4.254 5.514-7.157 10.818-8.708 15.91-1.55 5.095-2.024 10.754-1.42 16.98.604 6.223 2.574 12.752 5.91 19.583 3.337 6.83 7.907 13.86 13.71 21.09l102.184-92.678z" fill="#f17768"/><path d="M290.6 287.385l33.772-113.187c4.42-13.518 9.416-25.24 14.985-35.167 5.568-9.925 10.958-17.066 16.17-21.42 3.784-3.195 8.73-5.627 14.84-7.296 6.108-1.67 11.645-1.845 16.613-.53 6.536 1.733 11.675 5.44 15.417 11.117 3.74 5.68 4.92 11.133 3.534 16.362-1.627 6.144-4.667 10.62-9.12 13.427-4.45 2.807-9.225 3.535-14.323 2.184-4.576-1.212-8.92-4.882-13.032-11.008-2.314-3.41-4.582-5.41-6.804-6-2.222-.59-4.336-.135-6.34 1.362-2.007 1.497-3.616 4.533-4.828 9.11-1.42 5.36-3.344 14.992-5.77 28.9-9.402 55.008-18.467 98.984-27.197 131.927-2.425 9.15-12.416 43.158-29.974 102.022-6.438 21.657-12.23 38.24-17.38 49.747-6.84 15.255-13.28 25.826-19.315 31.71-6.037 5.886-11.953 9.6-17.748 11.142-5.795 1.542-11.634 1.534-17.516-.025-6.797-1.8-11.764-5.495-14.9-11.083-3.136-5.588-3.786-11.846-1.95-18.774 1.56-5.883 4.473-10.147 8.742-12.794 4.27-2.647 8.952-3.294 14.05-1.943 5.23 1.386 9.185 4.672 11.867 9.86 2.682 5.188 5.33 8.128 7.945 8.82 2.222.59 4.295.16 6.218-1.29 1.923-1.448 3.456-4.33 4.6-8.644 1.454-5.49 2.944-13.49 4.47-23.998 2.73-19.282 6.886-41.825 12.465-67.628 7.057-32.966 13.894-61.933 20.51-86.902z" fill="#946edb"/><path d="M473.017 533.41c10.855-24.904 22.75-42.145 35.68-51.724 12.93-9.578 30.572-14.368 52.922-14.368 25.702 0 47.413 9.26 65.134 27.778 17.72 18.52 26.58 42.545 26.58 72.08 0 29.214-8.62 53.24-25.862 72.08-17.24 18.837-36.48 28.256-57.71 28.256-14.21 0-27.1-4.39-38.675-13.17-11.574-8.78-25.583-27.22-42.026-55.318-10.216 19.796-21.392 34.045-33.524 42.745-12.133 8.7-26.82 13.05-44.062 13.05-22.99 0-42.426-8.222-58.31-24.665-15.885-16.443-23.827-37.676-23.827-63.698 0-26.18 7.344-47.334 22.03-63.46 14.688-16.122 31.85-24.184 51.486-24.185 14.687 0 27.18 3.792 37.477 11.375 10.296 7.583 21.192 21.99 32.687 43.224zm22.988 48.612c11.335 23.787 22.79 40.27 34.364 49.45 11.573 9.18 25.023 13.77 40.35 13.77 19.635 0 36.038-7.105 49.21-21.313 13.17-14.21 19.755-33.207 19.755-56.994 0-23.468-6.945-42.864-20.833-58.19-13.89-15.326-29.455-22.99-46.696-22.99-11.016 0-20.635 2.835-28.856 8.502-8.222 5.668-15.685 14.647-22.39 26.94-3.832 7.184-12.133 27.46-24.905 60.824zm-29.933-30.172c-7.822-17.56-16.762-30.492-26.82-38.794-10.058-8.3-22.43-12.452-37.117-12.452-16.923 0-31.09 5.947-42.506 17.84-11.415 11.894-17.122 27.818-17.122 47.773 0 21.233 5.627 38.196 16.882 50.887 11.255 12.692 23.987 19.038 38.195 19.038 15.166 0 28.576-6.785 40.23-20.355 7.503-8.94 16.922-30.252 28.257-63.937z" fill="#6dc5d3"/></g></svg>