<svg xmlns="http://www.w3.org/2000/svg" xmlns:xlink="http://www.w3.org/1999/xlink" version="1" width="358" height="360" viewBox="24.9491 4.49057 343.051 344.616"><path fill="none" d="M-31.176-49.99h452.232v452.23H-31.176z"/><defs><linearGradient id="a"><stop offset="0" stop-color="#c4c4c4" stop-opacity=".774"/><stop offset="1" stop-color="#767676" stop-opacity="0"/></linearGradient><linearGradient id="b"><stop offset="0" stop-color="#474747" stop-opacity=".323"/><stop offset=".579" stop-color="#c5c5c5" stop-opacity=".471"/><stop offset="1" stop-color="#f4f4f4" stop-opacity=".784"/></linearGradient><linearGradient id="l"><stop offset="0" stop-opacity=".333"/><stop offset="1" stop-opacity=".078"/></linearGradient><linearGradient id="e"><stop offset="0" stop-color="#c8c8c8"/><stop offset="1" stop-color="#646464"/></linearGradient><linearGradient id="d"><stop offset="0" stop-color="#d7d7d7"/><stop offset="1" stop-color="#c8c8c8"/></linearGradient><linearGradient id="c"><stop offset="0" stop-color="#d7d7d7"/><stop offset="1" stop-color="#fff"/></linearGradient><linearGradient x1="24.042" y1="215.043" x2="340.825" y2="215.043" id="f" xlink:href="#c" gradientUnits="userSpaceOnUse"/><linearGradient x1="51.5" y1="197.354" x2="51.5" y2="137.499" id="g" xlink:href="#d" gradientUnits="userSpaceOnUse" gradientTransform="translate(-.5 6.75)"/><linearGradient x1="58" y1="157" x2="371.5" y2="157" id="h" xlink:href="#e" gradientUnits="userSpaceOnUse"/><mask id="m"><g stroke-width="15" stroke-linecap="round" stroke-linejoin="round"><path fill="url(#f)" d="M24.042 198.073h316.784v33.94H24.042z"/><path fill="url(#g)" d="M24 144.25h41V204H24z"/><path fill="url(#h)" d="M58 118h313.5v78H58z"/></g></mask><linearGradient x1="24.042" y1="215.043" x2="340.825" y2="215.043" id="i" xlink:href="#c" gradientUnits="userSpaceOnUse"/><linearGradient x1="51.5" y1="197.354" x2="51.5" y2="137.499" id="j" xlink:href="#d" gradientUnits="userSpaceOnUse" gradientTransform="translate(-.5 6.75)"/><linearGradient x1="58" y1="157" x2="371.5" y2="157" id="k" xlink:href="#e" gradientUnits="userSpaceOnUse"/><mask id="n"><g stroke-width="15" stroke-linecap="round" stroke-linejoin="round"><path fill="url(#i)" d="M24.042 198.073h316.784v33.94H24.042z" transform="matrix(1 0 0 -1 216 226.014)"/><path fill="url(#j)" d="M24 144.25h41V204H24z" transform="matrix(1 0 0 -1 216 226.014)"/><path fill="url(#k)" d="M58 118h313.5v78H58z" transform="matrix(1 0 0 -1 216 226.014)"/></g></mask></defs><g fill-rule="evenodd"><path d="M225 181c0 14.076-11.424 25.5-25.5 25.5S174 195.076 174 181s11.424-25.5 25.5-25.5S225 166.924 225 181zm-32.75-7.75c-3.192 4.063-4.633 12.376-8.57 7.75-1.914-2.25.794-10.483 3.82-13.25 2.787-2.548 9.528-6.98 12.434-4.88 5.334 3.856-4.177 5.915-7.684 10.38z"/><path d="M354 202c26-24 31-74-157-74-94.5 0-169.5 23.62-169.5 50.5 0 22.272 39 50.5 172.5 50.5 74.98 0 98.32-6.42 104.67-7.382 4.557-.692 34.377 2.93 32.86-12.398-.996-10.07-17.425-2.762-26.116 1.608C297.19 217.98 270.11 222.354 200 222.354-31.176 222.354-7.79 134 197 134c224.056 0 157 70 157 68z" mask="url(#m)"/><path d="M354 202c26-24 31-74-157-74-94.5 0-169.5 23.62-169.5 50.5 0 22.272 39 50.5 172.5 50.5 74.98 0 98.32-6.42 104.67-7.382 4.557-.692 34.377 2.93 32.86-12.398-.996-10.07-17.425-2.762-26.116 1.608C297.19 217.98 270.11 222.354 200 222.354-31.176 222.354-7.79 134 197 134c224.056 0 157 70 157 68z" transform="rotate(90 198.315 179.5)" mask="url(#m)"/><path d="M570 24.014c26 24 31 74-157 74-94.5 0-169.5-23.62-169.5-50.5 0-22.273 39-50.5 172.5-50.5 74.98 0 98.32 6.42 104.67 7.382 4.557.69 34.377-2.93 32.86 12.398-.996 10.07-17.425 2.76-26.116-1.61C513.19 8.035 486.11 3.66 416 3.66c-231.176 0-207.79 88.354-3 88.354 224.056 0 157-70 157-68z" transform="rotate(-135 334.742 158.347)" mask="url(#n)"/><path d="M570 24.014c26 24 31 74-157 74-94.5 0-169.5-23.62-169.5-50.5 0-22.273 39-50.5 172.5-50.5 74.98 0 98.32 6.42 104.67 7.382 4.557.69 34.377-2.93 32.86 12.398-.996 10.07-17.425 2.76-26.116-1.61C513.19 8.035 486.11 3.66 416 3.66c-231.176 0-207.79 88.354-3 88.354 224.056 0 157-70 157-68z" transform="rotate(-45 467.866 373.563)" mask="url(#n)"/></g></svg>